<?xml version="1.0" encoding="utf-8"?>
<!-- Generator: Adobe Illustrator 24.2.3, SVG Export Plug-In . SVG Version: 6.00 Build 0)  -->
<svg version="1.1" xmlns="http://www.w3.org/2000/svg" xmlns:xlink="http://www.w3.org/1999/xlink" x="0px" y="0px"
	 viewBox="0 0 24 24" style="enable-background:new 0 0 24 24;" xml:space="preserve">
<style type="text/css">
	.st0{display:none;}
	.st1{display:inline;}
</style>
<g id="x_1_" class="st0">
	<g class="st1">
		<rect x="4.46" y="6" width="15.07" height="2.74"/>
		<rect x="4.46" y="10.63" width="15.07" height="2.74"/>
		<rect x="4.46" y="15.25" width="15.07" height="2.74"/>
	</g>
</g>
<g id="Instagram-2" class="st0">
	<g class="st1">
		<path d="M14.92,5.03H8.92c-2.49,0-4.52,2.03-4.52,4.52v6.01c0,2.49,2.03,4.52,4.52,4.52h6.01c2.49,0,4.52-2.03,4.52-4.52V9.55
			C19.44,7.05,17.41,5.03,14.92,5.03z M11.98,16.25c-2.04,0-3.7-1.66-3.7-3.7c0-2.04,1.66-3.7,3.7-3.7c2.04,0,3.7,1.66,3.7,3.7
			C15.69,14.59,14.02,16.25,11.98,16.25z M15.9,9.48c-0.49,0-0.88-0.39-0.88-0.88c0-0.49,0.39-0.88,0.88-0.88
			c0.49,0,0.88,0.39,0.88,0.88C16.78,9.08,16.39,9.48,15.9,9.48z"/>
		<path d="M11.98,14.92c-1.31,0-2.37-1.06-2.37-2.37s1.06-2.37,2.37-2.37c1.31,0,2.37,1.06,2.37,2.37S13.29,14.92,11.98,14.92z"/>
	</g>
</g>
<g id="x" class="st0">
	<polygon class="st1" points="18.3,7.64 16.36,5.7 12,10.06 7.64,5.7 5.7,7.64 10.06,12 5.7,16.36 7.64,18.3 12,13.94 16.36,18.3 
		18.3,16.36 13.94,12 	"/>
</g>
<g id="instagram">
	<g>
		<g>
			<path d="M16.29,7.42c-0.53,0-0.95,0.43-0.95,0.95c0,0.53,0.43,0.95,0.95,0.95c0.53,0,0.95-0.43,0.95-0.95
				C17.24,7.84,16.82,7.42,16.29,7.42z"/>
			<path d="M12.07,8.64c-2.2,0-3.99,1.79-3.99,3.99c0,2.2,1.79,3.99,3.99,3.99c2.2,0,3.99-1.79,3.99-3.99
				C16.06,10.43,14.27,8.64,12.07,8.64z M12.07,15.19c-1.41,0-2.56-1.15-2.56-2.56s1.15-2.56,2.56-2.56c1.41,0,2.56,1.15,2.56,2.56
				S13.48,15.19,12.07,15.19z"/>
			<path d="M15.24,20.74H8.76c-2.69,0-4.87-2.19-4.87-4.87V9.39c0-2.69,2.19-4.87,4.87-4.87h6.47c2.69,0,4.87,2.19,4.87,4.87v6.48
				C20.11,18.55,17.92,20.74,15.24,20.74z M8.76,6.05c-1.84,0-3.35,1.5-3.35,3.35v6.48c0,1.84,1.5,3.35,3.35,3.35h6.47
				c1.84,0,3.35-1.5,3.35-3.35V9.39c0-1.84-1.5-3.35-3.35-3.35H8.76z"/>
		</g>
	</g>
</g>
<g id="linkedin" class="st0">
	<g class="st1">
		<path d="M3.53,9.06h3.64v11.68H3.53V9.06z M5.35,3.26c1.16,0,2.1,0.94,2.1,2.1c0,1.16-0.94,2.11-2.1,2.11
			c-1.17,0-2.11-0.94-2.11-2.11C3.24,4.2,4.18,3.26,5.35,3.26"/>
		<path d="M9.44,9.06h3.48v1.6h0.05c0.49-0.92,1.67-1.89,3.44-1.89c3.67,0,4.35,2.42,4.35,5.56v6.4h-3.63v-5.68
			c0-1.36-0.03-3.1-1.89-3.1c-1.89,0-2.18,1.48-2.18,3v5.78H9.44V9.06z"/>
	</g>
</g>
<g id="behance" class="st0">
	<g class="st1">
		<path d="M12.07,17.25c0,0.57-0.11,1.07-0.34,1.5c-0.23,0.43-0.54,0.79-0.94,1.09c-0.4,0.29-0.86,0.51-1.39,0.67
			c-0.53,0.15-1.09,0.23-1.69,0.23H1.18V7.22h7.24c0.47,0,0.9,0.1,1.28,0.3c0.38,0.2,0.7,0.47,0.97,0.79
			c0.27,0.32,0.47,0.69,0.62,1.1c0.15,0.41,0.22,0.83,0.22,1.25c0,0.66-0.17,1.28-0.5,1.86c-0.33,0.58-0.81,1.01-1.45,1.29
			c0.77,0.23,1.39,0.64,1.84,1.23C11.85,15.63,12.07,16.37,12.07,17.25z M3.81,9.46v3.41h3.5c0.44,0,0.82-0.15,1.13-0.46
			c0.31-0.3,0.47-0.72,0.47-1.26c0-0.52-0.14-0.93-0.43-1.24C8.2,9.62,7.85,9.46,7.43,9.46H3.81z M9.43,16.76
			c0-0.24-0.04-0.47-0.12-0.7c-0.08-0.22-0.19-0.42-0.33-0.58c-0.14-0.16-0.3-0.3-0.5-0.39c-0.19-0.1-0.4-0.14-0.63-0.14H3.81v3.56
			h3.91c0.24,0,0.47-0.04,0.68-0.13c0.21-0.09,0.39-0.21,0.54-0.37c0.15-0.16,0.27-0.35,0.36-0.56C9.38,17.23,9.43,17,9.43,16.76z"
			/>
		<path d="M17.77,20.74c-0.78,0-1.48-0.13-2.1-0.4c-1.24-0.53-2.12-1.42-2.63-2.67c-0.24-0.6-0.36-1.24-0.36-1.9
			c0-0.69,0.12-1.34,0.35-1.95c0.5-1.26,1.38-2.17,2.63-2.7c0.63-0.27,1.34-0.41,2.13-0.41c0.79,0,1.49,0.14,2.11,0.41
			c2.04,0.89,3,2.87,2.92,5.02c-0.01,0.15-0.02,0.27-0.05,0.37h-7.48c0.04,0.38,0.13,0.72,0.28,1.01c0.15,0.3,0.34,0.55,0.57,0.76
			c0.23,0.21,0.5,0.37,0.79,0.48c0.3,0.11,0.6,0.17,0.92,0.17c0.49,0,0.96-0.12,1.39-0.36c0.44-0.24,0.74-0.56,0.9-0.95l2.12,0.59
			c-0.36,0.74-0.93,1.34-1.71,1.82C19.78,20.5,18.85,20.74,17.77,20.74z M20.28,14.91c-0.06-0.73-0.33-1.31-0.8-1.74
			c-0.47-0.44-1.05-0.66-1.73-0.66c-0.33,0-0.64,0.06-0.93,0.18c-0.29,0.12-0.54,0.28-0.77,0.49c-0.22,0.21-0.4,0.46-0.54,0.76
			c-0.14,0.3-0.22,0.62-0.25,0.98L20.28,14.91L20.28,14.91z"/>
		<path d="M14.51,7.86h6.47v1.61h-6.47V7.86z"/>
	</g>
</g>
</svg>
